<svg xmlns="http://www.w3.org/2000/svg" xmlns:xlink="http://www.w3.org/1999/xlink" width="110.343" height="56.36" viewBox="0 0 110.343 56.36">
  <defs>
    <clipPath id="clip-path">
      <rect width="110.343" height="56.36" fill="none"/>
    </clipPath>
    <linearGradient id="linear-gradient" x1="0.001" y1="0.496" x2="0.998" y2="0.496" gradientUnits="objectBoundingBox">
      <stop offset="0" stop-color="#812aff"/>
      <stop offset="1" stop-color="#00d1ff"/>
    </linearGradient>
    <linearGradient id="linear-gradient-2" x1="-0.001" y1="0.498" x2="0.999" y2="0.498" xlink:href="#linear-gradient"/>
    <linearGradient id="linear-gradient-3" x1="0" y1="0.503" x2="0.999" y2="0.503" xlink:href="#linear-gradient"/>
  </defs>
  <g id="Repeat_Grid_1" data-name="Repeat Grid 1" clip-path="url(#clip-path)">
    <g transform="translate(-798.125 -291.5)">
      <g id="air" transform="translate(798.125 291.5)">
        <path id="Path_31" data-name="Path 31" d="M21.5,8.214c4.27,2.733,10.078,4.612,15.031,2.562C42.339,8.555,47.121,4.627,53.1,3.26A23.818,23.818,0,0,1,68.473,4.8c5.466,2.391,9.565,7.174,15.544,8.882a17.716,17.716,0,0,0,16.056-3.758c-2.733,4.612-8.54,7.345-13.665,7.345a19.849,19.849,0,0,1-8.37-1.708c-3.075-1.366-5.637-3.416-8.54-4.953A22.082,22.082,0,0,0,53.783,8.043c-5.466,1.2-10.078,4.27-15.373,5.808C32.09,15.558,25.6,12.655,21.5,8.214Z" transform="translate(10.271 -2.633)" fill="url(#linear-gradient)"/>
        <path id="Path_32" data-name="Path 32" d="M81.3,16.553c-4.27-2.733-10.078-4.612-15.031-2.562-5.637,2.221-10.419,6.149-16.4,7.516A23.818,23.818,0,0,1,34.5,19.969c-5.466-2.391-9.565-7.174-15.544-8.882A17.716,17.716,0,0,0,2.9,14.845C5.633,10.233,11.44,7.5,16.565,7.5a19.849,19.849,0,0,1,8.37,1.708c3.075,1.366,5.637,3.416,8.54,4.953a22.082,22.082,0,0,0,15.714,2.562c5.466-1.2,10.078-4.27,15.373-5.808C70.711,9.208,77.2,11.941,81.3,16.553Z" transform="translate(-2.9 0.814)" fill="url(#linear-gradient-2)"/>
        <path id="Path_33" data-name="Path 33" d="M3.4,19.553c3.075-4.1,8.711-6.32,13.665-6.149,4.1.171,7.345,1.879,10.59,4.27C34.829,23.14,43.369,25.36,52.422,25.7c-8.2,3.929-19.472,2.221-26.646-3.245-2.562-2.05-4.953-4.1-8.2-4.783A21.371,21.371,0,0,0,3.4,19.553Z" transform="translate(-2.546 4.988)" fill="url(#linear-gradient-3)"/>
      </g>
      <g id="air-2" data-name="air" transform="translate(798.125 315.029)">
        <path id="Path_31-2" data-name="Path 31" d="M21.5,8.214c4.27,2.733,10.078,4.612,15.031,2.562C42.339,8.555,47.121,4.627,53.1,3.26A23.818,23.818,0,0,1,68.473,4.8c5.466,2.391,9.565,7.174,15.544,8.882a17.716,17.716,0,0,0,16.056-3.758c-2.733,4.612-8.54,7.345-13.665,7.345a19.849,19.849,0,0,1-8.37-1.708c-3.075-1.366-5.637-3.416-8.54-4.953A22.082,22.082,0,0,0,53.783,8.043c-5.466,1.2-10.078,4.27-15.373,5.808C32.09,15.558,25.6,12.655,21.5,8.214Z" transform="translate(10.271 -2.633)" fill="url(#linear-gradient)"/>
        <path id="Path_32-2" data-name="Path 32" d="M81.3,16.553c-4.27-2.733-10.078-4.612-15.031-2.562-5.637,2.221-10.419,6.149-16.4,7.516A23.818,23.818,0,0,1,34.5,19.969c-5.466-2.391-9.565-7.174-15.544-8.882A17.716,17.716,0,0,0,2.9,14.845C5.633,10.233,11.44,7.5,16.565,7.5a19.849,19.849,0,0,1,8.37,1.708c3.075,1.366,5.637,3.416,8.54,4.953a22.082,22.082,0,0,0,15.714,2.562c5.466-1.2,10.078-4.27,15.373-5.808C70.711,9.208,77.2,11.941,81.3,16.553Z" transform="translate(-2.9 0.814)" fill="url(#linear-gradient-2)"/>
        <path id="Path_33-2" data-name="Path 33" d="M3.4,19.553c3.075-4.1,8.711-6.32,13.665-6.149,4.1.171,7.345,1.879,10.59,4.27C34.829,23.14,43.369,25.36,52.422,25.7c-8.2,3.929-19.472,2.221-26.646-3.245-2.562-2.05-4.953-4.1-8.2-4.783A21.371,21.371,0,0,0,3.4,19.553Z" transform="translate(-2.546 4.988)" fill="url(#linear-gradient-3)"/>
      </g>
    </g>
  </g>
</svg>
