<svg xmlns="http://www.w3.org/2000/svg" xmlns:xlink="http://www.w3.org/1999/xlink" width="53.549" height="109.702" viewBox="0 0 53.549 109.702">
  <defs>
    <linearGradient id="linear-gradient" x1="-0.423" y1="0.792" x2="1.022" y2="0.087" gradientUnits="objectBoundingBox">
      <stop offset="0" stop-color="#ffa555"/>
      <stop offset="1" stop-color="#ff3f6f"/>
    </linearGradient>
  </defs>
  <path id="Energy_selected" d="M58.611,59.285c-11.548,15.1-23.539,29.757-35.531,44.858-2.665,3.553-5.33,7.55-11.1,10.659C16.862,96.593,20.859,80.6,25.3,64.17c1.332-4.886.888-6.662-4.886-6.662-10.215,0-10.215,0-7.106-10.215,4-11.992,7.55-24.428,11.548-36.419,1.332-4,3.109-5.774,7.55-5.774a185.224,185.224,0,0,0,22.207,0c4.441,0,4.886,1.332,3.553,5.33C55.058,20.2,52.393,30.416,48.84,40.187c-2.221,5.774,0,7.106,5.33,7.55,3.553,0,9.327-2.221,10.659.888C66.161,52.623,60.831,55.732,58.611,59.285Z" transform="translate(-11.491 -5.1)" fill="url(#linear-gradient)"/>
</svg>
