<svg xmlns="http://www.w3.org/2000/svg" xmlns:xlink="http://www.w3.org/1999/xlink" width="79.68" height="89.654" viewBox="0 0 79.68 89.654">
  <defs>
    <linearGradient id="linear-gradient" x1="0.124" y1="0.843" x2="0.893" y2="0.161" gradientUnits="objectBoundingBox">
      <stop offset="0" stop-color="#812aff"/>
      <stop offset="1" stop-color="#00d1ff"/>
    </linearGradient>
  </defs>
  <path id="hvac_selected" d="M21.023,68.538c-3.115,1.731-6.231,3.462-9,5.192a4.39,4.39,0,0,1-2.077.346c-1.731-1.038-2.423-3.115-3.115-4.846-.346-1.038.346-2.077,1.385-2.769,1.731-1.038,3.462-2.077,4.846-2.769s2.769-1.385,4.5-2.423c-3.115-1.038-6.231-1.731-9-2.423-1.038-.692-1.038-2.077-.346-3.808.692-1.038,1.385-.692,2.077-.692,3.462,1.038,6.923,1.731,10.038,2.769a4.293,4.293,0,0,0,4.5-.346c3.808-2.423,7.615-4.5,11.423-6.577.346-.346,1.038-.346,1.038-1.038-4.154-2.423-8.308-4.5-12.115-6.923a5.3,5.3,0,0,0-4.5-.692A65.985,65.985,0,0,1,8.908,45c-1.385-1.038-1.385-2.423-1.385-3.808a1.105,1.105,0,0,1,1.038-1.038c1.731-.346,3.462-1.038,4.846-1.385,1.038-.346,2.077-.692,3.462-1.038C13.754,36,10.985,34.615,8.216,32.885h0c-.346,0-.346-.346-.692-.346-2.077-1.385-2.077-2.423-1.038-4.5,2.423-4.154,2.423-4.154,6.923-1.731l7.269,4.154c-.692-2.769-1.385-5.538-2.077-7.962,0-1.731.346-2.077,2.077-2.423,1.038-.346,2.077-1.038,3.115.346,1.038,4.154,2.423,8.654,3.462,12.808,0,.692.692.692,1.038,1.038C32.1,36.346,35.562,38.423,39.37,40.5c1.038.692,1.731,1.038,2.769,1.731V25.961a1.8,1.8,0,0,0-.692-1.385l-8.654-8.654c-1.385-1.385-1.385-1.731,0-2.769l1.038-1.038a1.3,1.3,0,0,1,2.077,0l6.231,6.231V7.269A2.548,2.548,0,0,1,44.908,4.5h2.423a3.027,3.027,0,0,1,3.115,1.731V17.654c2.077-2.077,4.154-3.808,6.231-5.538,1.385-1.038,1.731-1.038,2.769.346A4.779,4.779,0,0,0,60.831,13.5c.346,1.038,0,1.385-.692,2.077l-8.654,8.654a1.906,1.906,0,0,0-.692,1.731V41.885c4.846-2.769,9.692-5.538,14.538-7.962.346-.346.692-.692.692-1.038l3.115-11.423c-.346,0-.346-.346-.346-.692a1.451,1.451,0,0,1,2.077-1.038c1.038.346,2.077.346,2.769,1.385a41.851,41.851,0,0,1-1.731,6.231c-.346,1.038-1.038,2.077-.692,3.115h0l7.269-4.154c.346-.346.692-.346,1.038-.692,2.423-1.385,3.115-1.038,4.5,1.038,0,.346.346.346.346.692h0C86.1,31.5,86.1,31.5,82.293,33.577a68.646,68.646,0,0,1-6.923,3.808l-.346.346,7.269,2.077a2.722,2.722,0,0,1,1.385,4.5c-.346.692-1.038.346-1.731.346-4.154-1.038-7.962-2.423-12.115-3.462a2.289,2.289,0,0,0-2.077.346c-4.5,2.423-9,5.192-13.5,7.615.346.692.692.692,1.038,1.038,4.154,2.423,8.308,4.5,12.461,6.923a4.39,4.39,0,0,0,2.077.346C73.639,56.423,77.793,55.384,81.6,54c1.385-.346,1.731,0,2.077,1.038v.346c.692,2.423.692,2.423-2.077,3.115l-7.269,2.077c2.077,1.385,4.154,2.423,5.885,3.462,1.038.692,2.423,1.385,3.462,2.077a2.4,2.4,0,0,1,1.038,3.462,7.537,7.537,0,0,1-1.731,2.769,2.4,2.4,0,0,1-3.462,1.038l-9.346-5.192h0a2.289,2.289,0,0,0,.346,2.077A41.85,41.85,0,0,0,72.254,76.5c.346,1.038,0,2.077-1.385,2.077-.346,0-.692.346-1.038.346-1.038.346-1.731,0-2.077-1.385-1.038-3.808-2.077-7.962-3.115-11.769,0-.692-.346-1.038-1.038-1.385-4.5-2.423-9-5.192-13.846-7.615a.339.339,0,0,1-.346-.346V66.461c0,2.423-.692,4.846.346,6.923.692,2.077,3.115,3.462,4.5,4.846A63.967,63.967,0,0,0,59.1,83.077a1.448,1.448,0,0,1,0,2.423c-2.077,2.077-2.077,2.077-4.5,0l-5.192-5.192V91.384a2.548,2.548,0,0,1-2.769,2.769H43.523c-1.731,0-2.423-1.038-2.423-2.769,0-3.462,0-6.923-.346-10.731-1.731,1.731-3.462,3.462-5.192,5.538-1.731,1.731-1.731,1.731-3.808,0h0c-1.038-1.038-1.038-1.385,0-2.769l8.654-8.654a1.8,1.8,0,0,0,.692-1.385V57.115c-.346,0-.692.346-1.038.346-4.154,2.423-8.654,4.846-12.808,7.269a1.9,1.9,0,0,0-1.038,1.731c-1.038,3.808-2.077,7.962-3.462,11.769-.346,1.385-1.038,1.731-2.077,1.385-2.769-.692-2.769-.692-2.077-3.808.692-2.077,1.038-3.808,1.731-5.885.692-.692,1.038-1.038.692-1.385Z" transform="translate(-5.803 -4.5)" fill="url(#linear-gradient)"/>
</svg>
