<svg id="occupancyHome" xmlns="http://www.w3.org/2000/svg" xmlns:xlink="http://www.w3.org/1999/xlink" width="78.696" height="74.563" viewBox="0 0 78.696 74.563">
  <defs>
    <linearGradient id="linear-gradient" x1="0.151" y1="0.855" x2="0.858" y2="0.148" gradientUnits="objectBoundingBox">
      <stop offset="0" stop-color="#00ff90"/>
      <stop offset="1" stop-color="#009efd"/>
    </linearGradient>
  </defs>
  <g id="Group_21" data-name="Group 21" transform="translate(0 0)" opacity="0.8">
    <g id="Group_19" data-name="Group 19" transform="translate(48.647)">
      <ellipse id="Ellipse_6" data-name="Ellipse 6" cx="6.764" cy="6.764" rx="6.764" ry="6.764" transform="translate(8.337)" fill="url(#linear-gradient)"/>
      <path id="Path_29" data-name="Path 29" d="M59.841,12.9H39.391A5.237,5.237,0,0,0,34.2,18.091V40.9a1.576,1.576,0,0,0,1.573,1.573h1.888A1.576,1.576,0,0,0,39.234,40.9V21.237a1.576,1.576,0,0,1,1.573-1.573h0a1.576,1.576,0,0,1,1.573,1.573V69.844a1.576,1.576,0,0,0,1.573,1.573h1.888a1.576,1.576,0,0,0,1.573-1.573V42.159a1.576,1.576,0,0,1,1.573-1.573h0a1.576,1.576,0,0,1,1.573,1.573V69.687a1.576,1.576,0,0,0,1.573,1.573H54.02a1.576,1.576,0,0,0,1.573-1.573V21.237a1.576,1.576,0,0,1,1.573-1.573h.315a1.576,1.576,0,0,1,1.573,1.573V40.743a1.576,1.576,0,0,0,1.573,1.573h1.888a1.576,1.576,0,0,0,1.573-1.573V17.934c.787-2.674-1.416-5.034-4.247-5.034Z" transform="translate(-34.2 2.988)" fill="url(#linear-gradient)"/>
    </g>
    <g id="Group_20" data-name="Group 20">
      <ellipse id="Ellipse_7" data-name="Ellipse 7" cx="6.764" cy="6.764" rx="6.764" ry="6.764" transform="translate(14.984)" fill="url(#linear-gradient)"/>
      <path id="Path_30" data-name="Path 30" d="M43.27,42.159l2.831-.787a1.033,1.033,0,0,0,.787-1.258l-6.449-22.18A7.079,7.079,0,0,0,33.674,12.9h-17.3a7.079,7.079,0,0,0-6.764,5.034L3.315,40.114A.972.972,0,0,0,4.1,41.372l2.831.787a.972.972,0,0,0,1.258-.787l6.135-21.236a1,1,0,0,1,.944-.787h0a1.008,1.008,0,0,1,.944,1.258L9.921,46.721a1.008,1.008,0,0,0,.944,1.258h6.449a1.075,1.075,0,0,1,1.1,1.1V70.474a1.075,1.075,0,0,0,1.1,1.1h2.989a1.075,1.075,0,0,0,1.1-1.1V49.08a1.075,1.075,0,0,1,1.1-1.1h1.258a1.075,1.075,0,0,1,1.1,1.1V70.474a1.075,1.075,0,0,0,1.1,1.1h2.989a1.075,1.075,0,0,0,1.1-1.1V49.08a1.075,1.075,0,0,1,1.1-1.1h6.449a1.008,1.008,0,0,0,.944-1.258l-6.921-25.8a1.008,1.008,0,0,1,.944-1.258h0a.881.881,0,0,1,.944.787l6.135,21.236A1.453,1.453,0,0,0,43.27,42.159Z" transform="translate(-3.275 2.988)" fill="url(#linear-gradient)"/>
    </g>
  </g>
</svg>
