<svg xmlns="http://www.w3.org/2000/svg" xmlns:xlink="http://www.w3.org/1999/xlink" width="51.606" height="51.606" viewBox="0 0 51.606 51.606">
  <defs>
    <linearGradient id="linear-gradient" x1="0.5" x2="0.5" y2="1" gradientUnits="objectBoundingBox">
      <stop offset="0" stop-color="#df00ff"/>
      <stop offset="1" stop-color="#fe0"/>
    </linearGradient>
  </defs>
  <g id="parking" transform="translate(1 1)">
    <g id="Group_23" data-name="Group 23" transform="translate(-1 -1)">
      <g id="Group_22" data-name="Group 22" transform="translate(0 0)">
        <path id="Path_66" data-name="Path 66" d="M36.844,184.28v-9.461a2.534,2.534,0,0,0-2.58-2.58h-.43a.854.854,0,0,1-.86-.6l-3.01-10.493v-.086a4.346,4.346,0,0,0-3.956-2.58H9.837a4.346,4.346,0,0,0-3.956,2.58v.086L2.87,171.636a1.036,1.036,0,0,1-.86.6H1.58A2.534,2.534,0,0,0-1,174.819v9.461a2.534,2.534,0,0,0,2.58,2.58v4.3a2.534,2.534,0,0,0,2.58,2.58h1.72a2.534,2.534,0,0,0,2.58-2.58v-4.3H27.383v4.3a2.534,2.534,0,0,0,2.58,2.58h1.72a2.534,2.534,0,0,0,2.58-2.58v-4.3A2.534,2.534,0,0,0,36.844,184.28Zm-30.1,6.881a.813.813,0,0,1-.86.86H4.161a.813.813,0,0,1-.86-.86v-4.3h3.44v4.3Zm25.8,0a.813.813,0,0,1-.86.86h-1.72a.813.813,0,0,1-.86-.86v-4.3h3.44v4.3Zm2.58-6.881a.813.813,0,0,1-.86.86H1.58a.813.813,0,0,1-.86-.86v-9.461a.813.813,0,0,1,.86-.86h.43A2.659,2.659,0,0,0,4.5,172.066l3.01-10.407A2.59,2.59,0,0,1,9.837,160.2h16.17a2.535,2.535,0,0,1,2.322,1.462l3.01,10.407a2.659,2.659,0,0,0,2.494,1.892h.43a.813.813,0,0,1,.86.86v9.461Z" transform="translate(1 -142.135)" fill="url(#linear-gradient)"/>
        <path id="Path_67" data-name="Path 67" d="M44.407,326.344a3.44,3.44,0,1,0,3.44,3.44A3.45,3.45,0,0,0,44.407,326.344Zm0,5.161a1.72,1.72,0,1,1,1.72-1.72A1.725,1.725,0,0,1,44.407,331.5Z" transform="translate(-36.667 -292.8)" fill="url(#linear-gradient)"/>
        <path id="Path_68" data-name="Path 68" d="M262.637,326.344a3.44,3.44,0,1,0,3.44,3.44A3.45,3.45,0,0,0,262.637,326.344Zm0,5.161a1.72,1.72,0,1,1,1.72-1.72A1.725,1.725,0,0,1,262.637,331.5Z" transform="translate(-232.534 -292.8)" fill="url(#linear-gradient)"/>
        <path id="Path_69" data-name="Path 69" d="M162.776,368.311h-3.44a.86.86,0,0,0,0,1.72h3.44a.86.86,0,0,0,0-1.72Z" transform="translate(-142.134 -330.467)" fill="url(#linear-gradient)"/>
        <path id="Path_70" data-name="Path 70" d="M149.429,334.738h-6.881a.86.86,0,0,0,0,1.72h6.881a.86.86,0,1,0,0-1.72Z" transform="translate(-127.066 -300.334)" fill="url(#linear-gradient)"/>
        <path id="Path_71" data-name="Path 71" d="M88.012,202.37h16.6a1.8,1.8,0,0,0,1.376-.688,1.667,1.667,0,0,0,.258-1.548l-2.064-6.881a1.677,1.677,0,0,0-1.634-1.2H90.076a1.652,1.652,0,0,0-1.634,1.2l-2.064,6.881a1.668,1.668,0,0,0,.258,1.548A1.8,1.8,0,0,0,88.012,202.37Zm2.064-8.6h12.471l2.064,6.881h-16.6Z" transform="translate(-77.347 -172.267)" fill="url(#linear-gradient)"/>
        <path id="Path_72" data-name="Path 72" d="M358.614-1H343.992a.813.813,0,0,0-.86.86V14.482a.813.813,0,0,0,.86.86h6.021V42.005h-1.72a.813.813,0,0,0-.86.86v2.58h-1.72a.813.813,0,0,0-.86.86v3.44a.813.813,0,0,0,.86.86h10.321a.813.813,0,0,0,.86-.86v-3.44a.813.813,0,0,0-.86-.86h-1.72v-2.58a.813.813,0,0,0-.86-.86h-1.72V15.342h6.881a.813.813,0,0,0,.86-.86V-.14A.813.813,0,0,0,358.614-1Zm-3.44,49.886h-8.6v-1.72h8.6v1.72Zm-2.58-3.44h-3.44v-1.72h3.44Zm5.161-31.824h-12.9V.72h12.9Z" transform="translate(-307.868 1)" fill="url(#linear-gradient)"/>
        <path id="Path_73" data-name="Path 73" d="M402.745,42.034a.813.813,0,0,0,.86-.86v-1.72h.86a3.44,3.44,0,1,0,0-6.881h-1.72a.813.813,0,0,0-.86.86v7.741A.813.813,0,0,0,402.745,42.034Zm3.44-6.021a1.725,1.725,0,0,1-1.72,1.72h-.86v-3.44h.86A1.725,1.725,0,0,1,406.185,36.014Z" transform="translate(-360.6 -29.133)" fill="url(#linear-gradient)"/>
      </g>
    </g>
  </g>
</svg>
