<svg xmlns="http://www.w3.org/2000/svg" xmlns:xlink="http://www.w3.org/1999/xlink" width="27.79" height="46.606" viewBox="0 0 27.79 46.606">
  <defs>
    <linearGradient id="linear-gradient" x1="0.5" x2="0.5" y2="1" gradientUnits="objectBoundingBox">
      <stop offset="0" stop-color="#ffa555"/>
      <stop offset="1" stop-color="#ff3f6f"/>
    </linearGradient>
  </defs>
  <path id="ups_selected" d="M34.243,1.4H9.347A1.367,1.367,0,0,0,7.9,2.847V46.559a1.367,1.367,0,0,0,1.447,1.447h24.9a1.367,1.367,0,0,0,1.447-1.447V2.847A1.367,1.367,0,0,0,34.243,1.4ZM30.19,3.716h1.447v7.671H30.19Zm-3.474,0h1.447v7.671H26.716Zm-3.618,0h1.447v7.671H23.1Zm-3.474,0h1.447v7.671H19.624Zm-3.474,0H17.6v7.671H16.15Zm-3.474,0h1.447v7.671H12.676ZM34.243,44.243A1.367,1.367,0,0,1,32.8,45.69H11.229a1.367,1.367,0,0,1-1.447-1.447V41.059a1.367,1.367,0,0,1,1.447-1.447H32.8a1.367,1.367,0,0,1,1.447,1.447v3.184Zm0-8.684A1.367,1.367,0,0,1,32.8,37.006H11.229a1.367,1.367,0,0,1-1.447-1.447V32.374a1.367,1.367,0,0,1,1.447-1.447H32.8a1.367,1.367,0,0,1,1.447,1.447v3.184Zm0-8.684A1.367,1.367,0,0,1,32.8,28.321H11.229a1.367,1.367,0,0,1-1.447-1.447V23.69a1.367,1.367,0,0,1,1.447-1.447H32.8a1.367,1.367,0,0,1,1.447,1.447v3.184Zm0-8.684A1.367,1.367,0,0,1,32.8,19.637H11.229A1.367,1.367,0,0,1,9.782,18.19V15.005a1.367,1.367,0,0,1,1.447-1.447H32.8a1.367,1.367,0,0,1,1.447,1.447V18.19Z" transform="translate(-7.9 -1.4)" fill="url(#linear-gradient)"/>
</svg>
