<svg xmlns="http://www.w3.org/2000/svg" width="66.347" height="84.089" viewBox="0 0 66.347 84.089">
  <path id="water" d="M56,6.1c-4.624,8.181-4.624,18.14,3.557,25.254A47.489,47.489,0,0,1,71.648,47c7.825,17.429-1.067,35.924-19.563,41.259a33.253,33.253,0,0,1-11.738,1.423,31.142,31.142,0,0,1-11.382-2.49A34.559,34.559,0,0,1,13.672,74.742a19.163,19.163,0,0,1-2.49-4.624C6.558,59.092,7.269,48.777,12.96,38.462,17.228,30.282,23.631,24.235,31.1,18.9A102.736,102.736,0,0,1,54.931,6.1C55.287,5.74,55.642,5.384,56,6.1Zm-40.9,48.373A27.34,27.34,0,0,0,30.389,81.145c9.6,4.624,20.985,2.845,28.1-3.2-9.248,2.845-18.5,2.49-27.032-2.134S17.584,64.072,15.094,54.468Z" transform="translate(-8.147 -5.685)" fill="#00e5ff"/>
</svg>
