<svg xmlns="http://www.w3.org/2000/svg" width="56" height="54.017" viewBox="0 0 56 54.017">
  <g id="controls" transform="translate(0 -0.992)">
    <path id="Path_21" data-name="Path 21" d="M8,41.08V2A1,1,0,0,0,6,2V41.08a7,7,0,1,0,2,0ZM7,53a5,5,0,1,1,5-5,5,5,0,0,1-5,5Z" fill="#fff"/>
    <path id="Path_22" data-name="Path 22" d="M29,20.695V2a1,1,0,0,0-2,0V20.632a7.2,7.2,0,0,0,0,14.322V54a1,1,0,0,0,2,0V34.891a7.2,7.2,0,0,0,0-14.2ZM27.793,33A5.207,5.207,0,1,1,33,27.793,5.207,5.207,0,0,1,27.793,33Z" fill="#fff"/>
    <path id="Path_23" data-name="Path 23" d="M56,8a7,7,0,1,0-8,6.92V54a1,1,0,0,0,2,0V14.92A7,7,0,0,0,56,8Zm-7,5a5,5,0,1,1,5-5A5,5,0,0,1,49,13Z" fill="#fff"/>
  </g>
</svg>
