<svg xmlns="http://www.w3.org/2000/svg" width="58.7" height="29.3" viewBox="0 0 58.7 29.3">
  <g id="baseline" transform="translate(-0.7 -15.8)">
    <path id="Path_79" data-name="Path 79" d="M36.5,24.6h0c-.4.6-.8,1.2-1.2,1.7l-.1.1H33.1v.1a3.36,3.36,0,0,1-.5,1.4,4.281,4.281,0,0,1-1.4,1.6A7.054,7.054,0,0,1,27.1,31h-.2a.1.1,0,0,0,.1.1l6,7.5c.4.4.7.9,1.1,1.3V40H31v-.1c-.6-.7-1.2-1.5-1.8-2.2l-5.1-6.3V29.6h2.6a4.253,4.253,0,0,0,1.1-.2,3.595,3.595,0,0,0,2.7-2.8v-.3H23.6a.52.52,0,0,0,.2-.4c.3-.4.6-.9.9-1.3l.1-.1h5.5l-.6-.9a2.384,2.384,0,0,0-1.1-.6,8.874,8.874,0,0,0-1.4-.3H23.7v-.1c.4-.6.7-1.1,1.1-1.7v-.1H36.6v.1c-.3.5-.6.9-.9,1.4-.1.1-.1.2-.2.3H32.3a3.717,3.717,0,0,1,.9,1.9h.1a31.122,31.122,0,0,0,3.2.1Z" fill="#fff"/>
    <g id="Group_24" data-name="Group 24">
      <path id="Path_80" data-name="Path 80" d="M59.4,45.1H.7V15.8H59.4Zm-57.7-1H58.4V16.8H1.7Z" fill="#fff"/>
    </g>
    <g id="Group_25" data-name="Group 25">
      <path id="Path_81" data-name="Path 81" d="M11.5,30.4a18.523,18.523,0,0,1,4.8-12.5H2.6v25H16.3A18.523,18.523,0,0,1,11.5,30.4Z" fill="#fff"/>
      <path id="Path_82" data-name="Path 82" d="M43.8,18a18.676,18.676,0,0,1,0,25H57.5V18Z" fill="#fff"/>
    </g>
  </g>
</svg>
