<svg xmlns="http://www.w3.org/2000/svg" width="51.7" height="33.9" viewBox="0 0 51.7 33.9">
  <g id="co2saving" transform="translate(-4.9 -14.4)">
    <path id="Path_87" data-name="Path 87" d="M48.4,29.4a10.145,10.145,0,0,0,.2-2.5,12.477,12.477,0,0,0-24.4-3.7,6.011,6.011,0,0,0-10.3,4.2,5.822,5.822,0,0,0,.3,1.9,9.5,9.5,0,0,0,.2,19H47.1a9.494,9.494,0,0,0,1.3-18.9ZM29.5,37a2.2,2.2,0,0,1-.5,1.2,1.765,1.765,0,0,1-.9.8,3.506,3.506,0,0,1-1.6.3,3.424,3.424,0,0,1-1.8-.4,2.41,2.41,0,0,1-1-1,6.037,6.037,0,0,1-.5-1.6,13.423,13.423,0,0,1-.1-2.1,14.769,14.769,0,0,1,.1-2.1,3.773,3.773,0,0,1,.5-1.6,2.41,2.41,0,0,1,1-1,3.007,3.007,0,0,1,1.8-.4,3.985,3.985,0,0,1,1.7.3,1.962,1.962,0,0,1,.9.9,4.875,4.875,0,0,1,.4,1.1,4.484,4.484,0,0,1,.1,1.1h-2a3.506,3.506,0,0,0-.3-1.6,1.05,1.05,0,0,0-.9-.5,1.072,1.072,0,0,0-.6.2.918.918,0,0,0-.4.6,3.73,3.73,0,0,0-.2,1.2c0,.5-.1,1.1-.1,1.8a9.722,9.722,0,0,0,.1,1.8c.1.5.1.8.2,1.1a.7.7,0,0,0,.4.5c.2.4.4.4.6.4a.9.9,0,0,0,.5-.1.781.781,0,0,0,.4-.4,3.385,3.385,0,0,0,.3-.8,4.888,4.888,0,0,0,.1-1.3h2A13.7,13.7,0,0,0,29.5,37Zm7.6-.6a3.773,3.773,0,0,1-.5,1.6,2.41,2.41,0,0,1-1,1,3.994,3.994,0,0,1-1.8.4A3.424,3.424,0,0,1,32,39a2.41,2.41,0,0,1-1-1,6.037,6.037,0,0,1-.5-1.6,13.423,13.423,0,0,1-.1-2.1,14.769,14.769,0,0,1,.1-2.1,3.773,3.773,0,0,1,.5-1.6,2.41,2.41,0,0,1,1-1,3.007,3.007,0,0,1,1.8-.4,3.425,3.425,0,0,1,1.8.4,3.178,3.178,0,0,1,1,1,6.037,6.037,0,0,1,.5,1.6,13.423,13.423,0,0,1,.1,2.1C37.2,35.1,37.1,35.8,37.1,36.4Zm4.6,6.2H38.3a1.7,1.7,0,0,1,.1-.7,1.421,1.421,0,0,1,.2-.6,2.092,2.092,0,0,1,.4-.6c.2-.2.3-.4.5-.6l.5-.4.3-.3c.1-.1.1-.2.2-.3,0-.1.1-.2.1-.3v-.4c0-.5-.2-.7-.6-.7-.1,0-.3,0-.3.1l-.2.2c0,.1-.1.2-.1.3v.4H38.3v-.2a1.594,1.594,0,0,1,.4-1.2,2.312,2.312,0,0,1,2.6,0,1.366,1.366,0,0,1,.4,1.1v.5c0,.2-.1.3-.1.4-.1.1-.2.3-.3.4s-.2.3-.4.4l-.6.6-.4.4a.758.758,0,0,0-.2.4h2.1v1.1Z" fill="#fff"/>
    <path id="Path_88" data-name="Path 88" d="M34.9,31.6a.918.918,0,0,0-.4-.6,1.325,1.325,0,0,0-1.4,0,.918.918,0,0,0-.4.6,3.6,3.6,0,0,0-.2,1.1v3.4a3.087,3.087,0,0,0,.2,1.1.918.918,0,0,0,.4.6,1.325,1.325,0,0,0,1.4,0,.918.918,0,0,0,.4-.6,3.6,3.6,0,0,0,.2-1.1V32.7A3.087,3.087,0,0,0,34.9,31.6Z" fill="#fff"/>
  </g>
</svg>
