<svg xmlns="http://www.w3.org/2000/svg" width="46.871" height="38.715" viewBox="0 0 46.871 38.715">
  <path id="Path_83" data-name="Path 83" d="M60.134,39.636a3.848,3.848,0,0,1-3.469,1.239c-.867-.124-1.115.124-1.115.991a16.613,16.613,0,0,1-7.556,14.122,2.292,2.292,0,0,0-.867,2.23C47,60.571,47,60.695,44.649,60.942a16.671,16.671,0,0,1-4.955-.248c-.248,0-.619,0-.619-.372.124-1.115-.619-.867-1.239-.867H35.359c-.743,0-1.61-.372-1.487.991,0,.372-.372.372-.743.372a23.877,23.877,0,0,1-5.946,0c-.619-.124-.867-.372-.743-.867A5.534,5.534,0,0,0,23.714,54.5,14.079,14.079,0,0,1,19.5,49.05a5.864,5.864,0,0,0-4.46-3.469c-1.858-.372-1.858-.5-1.734-2.23s.372-3.345.372-5.079c0-.619.248-.867.867-.991a2.915,2.915,0,0,0,.991-.248,4.968,4.968,0,0,0,4.088-2.849A18.617,18.617,0,0,1,22.476,30.1a2.574,2.574,0,0,0,.619-1.487,28.59,28.59,0,0,0-.372-4.583c-.248-1.858-.248-1.982,1.61-1.363a21.371,21.371,0,0,1,4.583,1.982,3.052,3.052,0,0,0,2.106.248c8.052-2.23,14.989-.248,20.44,6.07a16.483,16.483,0,0,1,3.1,5.574C55.8,39.636,56.665,40.131,60.134,39.636ZM43.287,27.867a.679.679,0,0,0-.5-.743,20.157,20.157,0,0,0-10.158,0c-.372.124-.743.372-.619.743a.7.7,0,0,0,.867.5,18.648,18.648,0,0,1,9.415,0C42.791,28.487,43.163,28.363,43.287,27.867ZM24.458,33.69a1.561,1.561,0,0,0-1.61,1.61,1.61,1.61,0,1,0,1.61-1.61Z" transform="translate(-13.263 -22.33)" fill="#fff"/>
</svg>
