<svg xmlns="http://www.w3.org/2000/svg" width="20.842" height="42.697" viewBox="0 0 20.842 42.697">
  <path id="Energy_selected" d="M29.83,26.189C25.336,32.067,20.669,37.771,16,43.649A12.5,12.5,0,0,1,11.68,47.8c1.9-7.087,3.457-13.311,5.186-19.707.519-1.9.346-2.593-1.9-2.593-3.976,0-3.976,0-2.766-3.976,1.556-4.667,2.939-9.508,4.494-14.175C17.211,5.791,17.9,5.1,19.631,5.1a72.092,72.092,0,0,0,8.643,0c1.729,0,1.9.519,1.383,2.074-1.21,3.8-2.247,7.779-3.63,11.582-.864,2.247,0,2.766,2.074,2.939,1.383,0,3.63-.864,4.149.346C32.769,23.6,30.695,24.807,29.83,26.189Z" transform="translate(-11.491 -5.1)" fill="#fff"/>
</svg>
