<svg xmlns="http://www.w3.org/2000/svg" width="42" height="51.127" viewBox="0 0 42 51.127">
  <g id="save-energy" transform="translate(-0.5)">
    <path id="Path_89" data-name="Path 89" d="M41.842,6.422A34.575,34.575,0,0,0,21.466.008C15,.155,8.195,2.3,1.241,6.37A1.5,1.5,0,0,0,.5,7.662V25.3a23.469,23.469,0,0,0,1.385,8.344,15.152,15.152,0,0,0,5.038,6.838L20.606,50.824a1.5,1.5,0,0,0,1.807,0L36.084,40.479a15.154,15.154,0,0,0,5.033-6.837A23.468,23.468,0,0,0,42.5,25.3V7.662a1.5,1.5,0,0,0-.658-1.24ZM39.5,25.3c0,5.86-1.759,10.162-5.228,12.786l-12.767,9.66L8.73,38.091C5.257,35.466,3.5,31.162,3.5,25.3V8.528C16.469,1.179,28.263,1.158,39.5,8.466Zm0,0" transform="translate(0 0)" fill="#fff"/>
    <path id="Path_90" data-name="Path 90" d="M110.943,113.68a1.5,1.5,0,0,0,1.355.86h4.556v11.626a1.5,1.5,0,0,0,2.652.954l10.921-13.21a1.5,1.5,0,0,0-1.155-2.452h-4.556V99.832a1.5,1.5,0,0,0-2.652-.954l-10.922,13.211a1.5,1.5,0,0,0-.2,1.592Zm10.779-9.686v8.961a1.5,1.5,0,0,0,1.5,1.5h2.872L119.85,122v-8.961a1.5,1.5,0,0,0-1.5-1.5H115.48Zm0,0" transform="translate(-99.286 -88.514)" fill="#fff"/>
  </g>
</svg>
