<?xml version="1.0" encoding="UTF-8" standalone="no"?>
<!DOCTYPE svg PUBLIC "-//W3C//DTD SVG 1.1//EN"
 "http://www.w3.org/Graphics/SVG/1.1/DTD/svg11.dtd">
<!-- Generated by graphviz version 2.40.1 (20161225.0304)
 -->
<!-- Title: dependencies Pages: 1 -->
<svg width="504pt" height="284pt"
 viewBox="0.00 0.00 504.00 284.00" xmlns="http://www.w3.org/2000/svg" xmlns:xlink="http://www.w3.org/1999/xlink">
<g id="graph0" class="graph" transform="scale(1 1) rotate(0) translate(4 280)">
<title>dependencies</title>
<polygon fill="#ffffff" stroke="transparent" points="-4,4 -4,-280 500,-280 500,4 -4,4"/>
<text text-anchor="start" x="227.0091" y="-42.4" font-family="sans-serif" font-weight="bold" font-size="14.00" fill="#000000">Legend</text>
<polygon fill="#ffffb3" stroke="transparent" points="14,-10 14,-30 34,-30 34,-10 14,-10"/>
<text text-anchor="start" x="37.629" y="-15.4" font-family="sans-serif" font-size="14.00" fill="#000000"> &#160;Declarations</text>
<polygon fill="#8dd3c7" stroke="transparent" points="127,-10 127,-30 147,-30 147,-10 127,-10"/>
<text text-anchor="start" x="150.7251" y="-15.4" font-family="sans-serif" font-size="14.00" fill="#000000"> &#160;Module</text>
<polygon fill="#80b1d3" stroke="transparent" points="213,-10 213,-30 233,-30 233,-10 213,-10"/>
<text text-anchor="start" x="236.7812" y="-15.4" font-family="sans-serif" font-size="14.00" fill="#000000"> &#160;Bootstrap</text>
<polygon fill="#fdb462" stroke="transparent" points="310,-10 310,-30 330,-30 330,-10 310,-10"/>
<text text-anchor="start" x="333.6732" y="-15.4" font-family="sans-serif" font-size="14.00" fill="#000000"> &#160;Providers</text>
<polygon fill="#fb8072" stroke="transparent" points="406,-10 406,-30 426,-30 426,-10 406,-10"/>
<text text-anchor="start" x="429.7258" y="-15.4" font-family="sans-serif" font-size="14.00" fill="#000000"> &#160;Exports</text>
<g id="clust1" class="cluster">
<title>cluster_SharemoduleModule</title>
<polygon fill="none" stroke="#000000" stroke-dasharray="1,5" points="84,-70 84,-268 412,-268 412,-70 84,-70"/>
</g>
<g id="clust2" class="cluster">
<title>cluster_SharemoduleModule_declarations</title>
<polygon fill="none" stroke="#000000" points="96,-78 96,-130 400,-130 400,-78 96,-78"/>
</g>
<g id="clust6" class="cluster">
<title>cluster_SharemoduleModule_exports</title>
<polygon fill="none" stroke="#000000" points="92,-208 92,-260 404,-260 404,-208 92,-208"/>
</g>
<!-- FooterComponent -->
<g id="node1" class="node">
<title>FooterComponent</title>
<polygon fill="#ffffb3" stroke="#000000" points="391.8809,-122 274.1191,-122 274.1191,-86 391.8809,-86 391.8809,-122"/>
<text text-anchor="middle" x="333" y="-99.8" font-family="Times,serif" font-size="14.00" fill="#000000">FooterComponent</text>
</g>
<!-- SharemoduleModule -->
<g id="node3" class="node">
<title>SharemoduleModule</title>
<polygon fill="#8dd3c7" stroke="#000000" points="247.9187,-187 244.9187,-191 223.9187,-191 220.9187,-187 114.0813,-187 114.0813,-151 247.9187,-151 247.9187,-187"/>
<text text-anchor="middle" x="181" y="-164.8" font-family="Times,serif" font-size="14.00" fill="#000000">SharemoduleModule</text>
</g>
<!-- FooterComponent&#45;&gt;SharemoduleModule -->
<g id="edge1" class="edge">
<title>FooterComponent&#45;&gt;SharemoduleModule</title>
<path fill="none" stroke="#000000" d="M352.7301,-122.0225C352.7301,-139.3734 352.7301,-163 352.7301,-163 352.7301,-163 257.8871,-163 257.8871,-163"/>
<polygon fill="#000000" stroke="#000000" points="257.8871,-159.5001 247.8871,-163 257.8871,-166.5001 257.8871,-159.5001"/>
</g>
<!-- IbemsheaderComponent -->
<g id="node2" class="node">
<title>IbemsheaderComponent</title>
<polygon fill="#ffffb3" stroke="#000000" points="256.3473,-122 103.6527,-122 103.6527,-86 256.3473,-86 256.3473,-122"/>
<text text-anchor="middle" x="180" y="-99.8" font-family="Times,serif" font-size="14.00" fill="#000000">IbemsheaderComponent</text>
</g>
<!-- IbemsheaderComponent&#45;&gt;SharemoduleModule -->
<g id="edge2" class="edge">
<title>IbemsheaderComponent&#45;&gt;SharemoduleModule</title>
<path fill="none" stroke="#000000" d="M181,-122.1061C181,-122.1061 181,-140.991 181,-140.991"/>
<polygon fill="#000000" stroke="#000000" points="177.5001,-140.9909 181,-150.991 184.5001,-140.991 177.5001,-140.9909"/>
</g>
<!-- FooterComponent  -->
<g id="node4" class="node">
<title>FooterComponent </title>
<polygon fill="#fb8072" stroke="#000000" points="395.8814,-252 274.1186,-252 274.1186,-216 395.8814,-216 395.8814,-252"/>
<text text-anchor="middle" x="335" y="-229.8" font-family="Times,serif" font-size="14.00" fill="#000000">FooterComponent </text>
</g>
<!-- SharemoduleModule&#45;&gt;FooterComponent  -->
<g id="edge3" class="edge">
<title>SharemoduleModule&#45;&gt;FooterComponent </title>
<path fill="none" stroke="#000000" stroke-dasharray="5,2" d="M248.0364,-175C280.9055,-175 313.5199,-175 313.5199,-175 313.5199,-175 313.5199,-205.9775 313.5199,-205.9775"/>
<polygon fill="#000000" stroke="#000000" points="310.02,-205.9774 313.5199,-215.9775 317.02,-205.9775 310.02,-205.9774"/>
</g>
<!-- IbemsheaderComponent  -->
<g id="node5" class="node">
<title>IbemsheaderComponent </title>
<polygon fill="#fb8072" stroke="#000000" points="256.3476,-252 99.6524,-252 99.6524,-216 256.3476,-216 256.3476,-252"/>
<text text-anchor="middle" x="178" y="-229.8" font-family="Times,serif" font-size="14.00" fill="#000000">IbemsheaderComponent </text>
</g>
<!-- SharemoduleModule&#45;&gt;IbemsheaderComponent  -->
<g id="edge4" class="edge">
<title>SharemoduleModule&#45;&gt;IbemsheaderComponent </title>
<path fill="none" stroke="#000000" stroke-dasharray="5,2" d="M181,-187.1061C181,-187.1061 181,-205.991 181,-205.991"/>
<polygon fill="#000000" stroke="#000000" points="177.5001,-205.9909 181,-215.991 184.5001,-205.991 177.5001,-205.9909"/>
</g>
</g>
</svg>
