<?xml version="1.0" encoding="UTF-8" standalone="no"?>
<!DOCTYPE svg PUBLIC "-//W3C//DTD SVG 1.1//EN"
 "http://www.w3.org/Graphics/SVG/1.1/DTD/svg11.dtd">
<!-- Generated by graphviz version 2.40.1 (20161225.0304)
 -->
<!-- Title: dependencies Pages: 1 -->
<svg width="646pt" height="211pt"
 viewBox="0.00 0.00 646.00 211.00" xmlns="http://www.w3.org/2000/svg" xmlns:xlink="http://www.w3.org/1999/xlink">
<g id="graph0" class="graph" transform="scale(1 1) rotate(0) translate(4 207)">
<title>dependencies</title>
<polygon fill="#ffffff" stroke="transparent" points="-4,4 -4,-207 642,-207 642,4 -4,4"/>
<text text-anchor="start" x="298.0091" y="-42.4" font-family="sans-serif" font-weight="bold" font-size="14.00" fill="#000000">Legend</text>
<polygon fill="#ffffb3" stroke="transparent" points="85,-10 85,-30 105,-30 105,-10 85,-10"/>
<text text-anchor="start" x="108.629" y="-15.4" font-family="sans-serif" font-size="14.00" fill="#000000"> &#160;Declarations</text>
<polygon fill="#8dd3c7" stroke="transparent" points="198,-10 198,-30 218,-30 218,-10 198,-10"/>
<text text-anchor="start" x="221.7251" y="-15.4" font-family="sans-serif" font-size="14.00" fill="#000000"> &#160;Module</text>
<polygon fill="#80b1d3" stroke="transparent" points="284,-10 284,-30 304,-30 304,-10 284,-10"/>
<text text-anchor="start" x="307.7812" y="-15.4" font-family="sans-serif" font-size="14.00" fill="#000000"> &#160;Bootstrap</text>
<polygon fill="#fdb462" stroke="transparent" points="381,-10 381,-30 401,-30 401,-10 381,-10"/>
<text text-anchor="start" x="404.6732" y="-15.4" font-family="sans-serif" font-size="14.00" fill="#000000"> &#160;Providers</text>
<polygon fill="#fb8072" stroke="transparent" points="477,-10 477,-30 497,-30 497,-10 477,-10"/>
<text text-anchor="start" x="500.7258" y="-15.4" font-family="sans-serif" font-size="14.00" fill="#000000"> &#160;Exports</text>
<g id="clust1" class="cluster">
<title>cluster_HomeModule</title>
<polygon fill="none" stroke="#000000" stroke-dasharray="1,5" points="8,-70 8,-195 630,-195 630,-70 8,-70"/>
</g>
<g id="clust2" class="cluster">
<title>cluster_HomeModule_declarations</title>
<polygon fill="none" stroke="#000000" points="330,-78 330,-130 622,-130 622,-78 330,-78"/>
</g>
<g id="clust5" class="cluster">
<title>cluster_HomeModule_imports</title>
<polygon fill="none" stroke="#000000" points="16,-78 16,-130 322,-130 322,-78 16,-78"/>
</g>
<!-- DashboardComponent -->
<g id="node1" class="node">
<title>DashboardComponent</title>
<polygon fill="#ffffb3" stroke="#000000" points="613.9734,-122 472.0266,-122 472.0266,-86 613.9734,-86 613.9734,-122"/>
<text text-anchor="middle" x="543" y="-99.8" font-family="Times,serif" font-size="14.00" fill="#000000">DashboardComponent</text>
</g>
<!-- HomeModule -->
<g id="node3" class="node">
<title>HomeModule</title>
<polygon fill="#8dd3c7" stroke="#000000" points="366.7619,-187 363.7619,-191 342.7619,-191 339.7619,-187 273.2381,-187 273.2381,-151 366.7619,-151 366.7619,-187"/>
<text text-anchor="middle" x="320" y="-164.8" font-family="Times,serif" font-size="14.00" fill="#000000">HomeModule</text>
</g>
<!-- DashboardComponent&#45;&gt;HomeModule -->
<g id="edge1" class="edge">
<title>DashboardComponent&#45;&gt;HomeModule</title>
<path fill="none" stroke="#000000" d="M543,-122.1061C543,-141.3391 543,-169 543,-169 543,-169 377.0201,-169 377.0201,-169"/>
<polygon fill="#000000" stroke="#000000" points="377.0201,-165.5001 367.0201,-169 377.02,-172.5001 377.0201,-165.5001"/>
</g>
<!-- HomeComponent -->
<g id="node2" class="node">
<title>HomeComponent</title>
<polygon fill="#ffffb3" stroke="#000000" points="453.5451,-122 338.4549,-122 338.4549,-86 453.5451,-86 453.5451,-122"/>
<text text-anchor="middle" x="396" y="-99.8" font-family="Times,serif" font-size="14.00" fill="#000000">HomeComponent</text>
</g>
<!-- HomeComponent&#45;&gt;HomeModule -->
<g id="edge2" class="edge">
<title>HomeComponent&#45;&gt;HomeModule</title>
<path fill="none" stroke="#000000" d="M352.5544,-122.1061C352.5544,-122.1061 352.5544,-140.991 352.5544,-140.991"/>
<polygon fill="#000000" stroke="#000000" points="349.0544,-140.9909 352.5544,-150.991 356.0544,-140.991 349.0544,-140.9909"/>
</g>
<!-- HomeRoutingModule -->
<g id="node4" class="node">
<title>HomeRoutingModule</title>
<polygon fill="#8dd3c7" stroke="#000000" points="314.3795,-122 311.3795,-126 290.3795,-126 287.3795,-122 175.6205,-122 175.6205,-86 314.3795,-86 314.3795,-122"/>
<text text-anchor="middle" x="245" y="-99.8" font-family="Times,serif" font-size="14.00" fill="#000000">HomeRoutingModule</text>
</g>
<!-- HomeRoutingModule&#45;&gt;HomeModule -->
<g id="edge3" class="edge">
<title>HomeRoutingModule&#45;&gt;HomeModule</title>
<path fill="none" stroke="#000000" d="M293.7795,-122.1061C293.7795,-122.1061 293.7795,-140.991 293.7795,-140.991"/>
<polygon fill="#000000" stroke="#000000" points="290.2795,-140.9909 293.7795,-150.991 297.2795,-140.991 290.2795,-140.9909"/>
</g>
<!-- SharemoduleModule -->
<g id="node5" class="node">
<title>SharemoduleModule</title>
<polygon fill="#8dd3c7" stroke="#000000" points="157.9187,-122 154.9187,-126 133.9187,-126 130.9187,-122 24.0813,-122 24.0813,-86 157.9187,-86 157.9187,-122"/>
<text text-anchor="middle" x="91" y="-99.8" font-family="Times,serif" font-size="14.00" fill="#000000">SharemoduleModule</text>
</g>
<!-- SharemoduleModule&#45;&gt;HomeModule -->
<g id="edge4" class="edge">
<title>SharemoduleModule&#45;&gt;HomeModule</title>
<path fill="none" stroke="#000000" d="M91,-122.1061C91,-141.3391 91,-169 91,-169 91,-169 263.1058,-169 263.1058,-169"/>
<polygon fill="#000000" stroke="#000000" points="263.1059,-172.5001 273.1058,-169 263.1058,-165.5001 263.1059,-172.5001"/>
</g>
</g>
</svg>
