<?xml version="1.0" encoding="UTF-8" standalone="no"?>
<!DOCTYPE svg PUBLIC "-//W3C//DTD SVG 1.1//EN"
 "http://www.w3.org/Graphics/SVG/1.1/DTD/svg11.dtd">
<!-- Generated by graphviz version 2.40.1 (20161225.0304)
 -->
<!-- Title: dependencies Pages: 1 -->
<svg width="3811pt" height="290pt"
 viewBox="0.00 0.00 3811.00 290.00" xmlns="http://www.w3.org/2000/svg" xmlns:xlink="http://www.w3.org/1999/xlink">
<g id="graph0" class="graph" transform="scale(1 1) rotate(0) translate(4 286)">
<title>dependencies</title>
<polygon fill="#ffffff" stroke="transparent" points="-4,4 -4,-286 3807,-286 3807,4 -4,4"/>
<text text-anchor="start" x="1880.5091" y="-42.4" font-family="sans-serif" font-weight="bold" font-size="14.00" fill="#000000">Legend</text>
<polygon fill="#ffffb3" stroke="transparent" points="1667.5,-10 1667.5,-30 1687.5,-30 1687.5,-10 1667.5,-10"/>
<text text-anchor="start" x="1691.129" y="-15.4" font-family="sans-serif" font-size="14.00" fill="#000000"> &#160;Declarations</text>
<polygon fill="#8dd3c7" stroke="transparent" points="1780.5,-10 1780.5,-30 1800.5,-30 1800.5,-10 1780.5,-10"/>
<text text-anchor="start" x="1804.2251" y="-15.4" font-family="sans-serif" font-size="14.00" fill="#000000"> &#160;Module</text>
<polygon fill="#80b1d3" stroke="transparent" points="1866.5,-10 1866.5,-30 1886.5,-30 1886.5,-10 1866.5,-10"/>
<text text-anchor="start" x="1890.2812" y="-15.4" font-family="sans-serif" font-size="14.00" fill="#000000"> &#160;Bootstrap</text>
<polygon fill="#fdb462" stroke="transparent" points="1963.5,-10 1963.5,-30 1983.5,-30 1983.5,-10 1963.5,-10"/>
<text text-anchor="start" x="1987.1732" y="-15.4" font-family="sans-serif" font-size="14.00" fill="#000000"> &#160;Providers</text>
<polygon fill="#fb8072" stroke="transparent" points="2059.5,-10 2059.5,-30 2079.5,-30 2079.5,-10 2059.5,-10"/>
<text text-anchor="start" x="2083.2258" y="-15.4" font-family="sans-serif" font-size="14.00" fill="#000000"> &#160;Exports</text>
<g id="clust7" class="cluster">
<title>cluster_AppModule</title>
<polygon fill="none" stroke="#000000" stroke-dasharray="1,5" points="8,-70 8,-274 2493,-274 2493,-70 8,-70"/>
</g>
<g id="clust8" class="cluster">
<title>cluster_AppModule_declarations</title>
<polygon fill="none" stroke="#000000" points="474,-78 474,-130 1572,-130 1572,-78 474,-78"/>
</g>
<g id="clust11" class="cluster">
<title>cluster_AppModule_imports</title>
<polygon fill="none" stroke="#000000" points="1580,-78 1580,-130 2485,-130 2485,-78 1580,-78"/>
</g>
<g id="clust12" class="cluster">
<title>cluster_AppModule_exports</title>
<polygon fill="none" stroke="#000000" points="1441,-214 1441,-266 1768,-266 1768,-214 1441,-214"/>
</g>
<g id="clust13" class="cluster">
<title>cluster_AppModule_bootstrap</title>
<polygon fill="none" stroke="#000000" points="1309,-214 1309,-266 1433,-266 1433,-214 1309,-214"/>
</g>
<g id="clust14" class="cluster">
<title>cluster_AppModule_providers</title>
<polygon fill="none" stroke="#000000" points="16,-78 16,-130 466,-130 466,-78 16,-78"/>
</g>
<g id="clust32" class="cluster">
<title>cluster_ChartmoduleModule</title>
<polygon fill="none" stroke="#000000" stroke-dasharray="1,5" points="3627,-70 3627,-198 3795,-198 3795,-70 3627,-70"/>
</g>
<g id="clust33" class="cluster">
<title>cluster_ChartmoduleModule_declarations</title>
<polygon fill="none" stroke="#000000" points="3635,-78 3635,-130 3787,-130 3787,-78 3635,-78"/>
</g>
<g id="clust51" class="cluster">
<title>cluster_HomeModule</title>
<polygon fill="none" stroke="#000000" stroke-dasharray="1,5" points="3149,-70 3149,-198 3619,-198 3619,-70 3149,-70"/>
</g>
<g id="clust52" class="cluster">
<title>cluster_HomeModule_declarations</title>
<polygon fill="none" stroke="#000000" points="3319,-78 3319,-130 3611,-130 3611,-78 3319,-78"/>
</g>
<g id="clust55" class="cluster">
<title>cluster_HomeModule_imports</title>
<polygon fill="none" stroke="#000000" points="3157,-78 3157,-130 3311,-130 3311,-78 3157,-78"/>
</g>
<g id="clust71" class="cluster">
<title>cluster_SharemoduleModule</title>
<polygon fill="none" stroke="#000000" stroke-dasharray="1,5" points="2501,-138 2501,-206 3141,-206 3141,-138 2501,-138"/>
</g>
<g id="clust72" class="cluster">
<title>cluster_SharemoduleModule_declarations</title>
<polygon fill="none" stroke="#000000" points="2829,-146 2829,-198 3133,-198 3133,-146 2829,-146"/>
</g>
<g id="clust76" class="cluster">
<title>cluster_SharemoduleModule_exports</title>
<polygon fill="none" stroke="#000000" points="2509,-146 2509,-198 2821,-198 2821,-146 2509,-146"/>
</g>
<!-- AlarmsComponent -->
<g id="node1" class="node">
<title>AlarmsComponent</title>
<polygon fill="#ffffb3" stroke="#000000" points="1564.0409,-122 1441.9591,-122 1441.9591,-86 1564.0409,-86 1564.0409,-122"/>
<text text-anchor="middle" x="1503" y="-99.8" font-family="Times,serif" font-size="14.00" fill="#000000">AlarmsComponent</text>
</g>
<!-- AppModule -->
<g id="node3" class="node">
<title>AppModule</title>
<polygon fill="#8dd3c7" stroke="#000000" points="1412.6571,-190 1409.6571,-194 1388.6571,-194 1385.6571,-190 1329.3429,-190 1329.3429,-154 1412.6571,-154 1412.6571,-190"/>
<text text-anchor="middle" x="1371" y="-167.8" font-family="Times,serif" font-size="14.00" fill="#000000">AppModule</text>
</g>
<!-- AlarmsComponent&#45;&gt;AppModule -->
<g id="edge1" class="edge">
<title>AlarmsComponent&#45;&gt;AppModule</title>
<path fill="none" stroke="#000000" d="M1525.6937,-122.2819C1525.6937,-137.9478 1525.6937,-158 1525.6937,-158 1525.6937,-158 1422.8623,-158 1422.8623,-158"/>
<polygon fill="#000000" stroke="#000000" points="1422.8624,-154.5001 1412.8623,-158 1422.8623,-161.5001 1422.8624,-154.5001"/>
</g>
<!-- AppComponent -->
<g id="node2" class="node">
<title>AppComponent</title>
<polygon fill="#ffffb3" stroke="#000000" points="1423.9399,-122 1318.0601,-122 1318.0601,-86 1423.9399,-86 1423.9399,-122"/>
<text text-anchor="middle" x="1371" y="-99.8" font-family="Times,serif" font-size="14.00" fill="#000000">AppComponent</text>
</g>
<!-- AppComponent&#45;&gt;AppModule -->
<g id="edge2" class="edge">
<title>AppComponent&#45;&gt;AppModule</title>
<path fill="none" stroke="#000000" d="M1350.0859,-122.2228C1350.0859,-122.2228 1350.0859,-143.7269 1350.0859,-143.7269"/>
<polygon fill="#000000" stroke="#000000" points="1346.586,-143.7269 1350.0859,-153.7269 1353.586,-143.727 1346.586,-143.7269"/>
</g>
<!-- AppComponent&#45;&gt;AppModule -->
<g id="edge7" class="edge">
<title>AppComponent&#45;&gt;AppModule</title>
<path fill="none" stroke="#000000" d="M1339.6289,-122.2228C1339.6289,-122.2228 1339.6289,-143.7269 1339.6289,-143.7269"/>
<polygon fill="#000000" stroke="#000000" points="1336.1289,-143.7269 1339.6289,-153.7269 1343.1289,-143.727 1336.1289,-143.7269"/>
</g>
<!-- AppComponent&#45;&gt;AppModule -->
<g id="edge15" class="edge">
<title>AppComponent&#45;&gt;AppModule</title>
<path fill="none" stroke="#000000" d="M1371,-122.2228C1371,-122.2228 1371,-143.7269 1371,-143.7269"/>
<polygon fill="#000000" stroke="#000000" points="1367.5001,-143.7269 1371,-153.7269 1374.5001,-143.727 1367.5001,-143.7269"/>
</g>
<!-- AppComponent&#45;&gt;AppModule -->
<g id="edge20" class="edge">
<title>AppComponent&#45;&gt;AppModule</title>
<path fill="none" stroke="#000000" d="M1360.543,-122.2228C1360.543,-122.2228 1360.543,-143.7269 1360.543,-143.7269"/>
<polygon fill="#000000" stroke="#000000" points="1357.043,-143.7269 1360.543,-153.7269 1364.043,-143.727 1357.043,-143.7269"/>
</g>
<!-- AppComponent&#45;&gt;AppModule -->
<g id="edge24" class="edge">
<title>AppComponent&#45;&gt;AppModule</title>
<path fill="none" stroke="#000000" d="M1381.4571,-122.2228C1381.4571,-122.2228 1381.4571,-143.7269 1381.4571,-143.7269"/>
<polygon fill="#000000" stroke="#000000" points="1377.9571,-143.7269 1381.4571,-153.7269 1384.9571,-143.727 1377.9571,-143.7269"/>
</g>
<!-- AppComponent&#45;&gt;AppModule -->
<g id="edge32" class="edge">
<title>AppComponent&#45;&gt;AppModule</title>
<path fill="none" stroke="#000000" d="M1391.9141,-122.2228C1391.9141,-122.2228 1391.9141,-143.7269 1391.9141,-143.7269"/>
<polygon fill="#000000" stroke="#000000" points="1388.4142,-143.7269 1391.9141,-153.7269 1395.4142,-143.727 1388.4142,-143.7269"/>
</g>
<!-- AppComponent&#45;&gt;AppModule -->
<g id="edge35" class="edge">
<title>AppComponent&#45;&gt;AppModule</title>
<path fill="none" stroke="#000000" d="M1402.3712,-122.2228C1402.3712,-122.2228 1402.3712,-143.7269 1402.3712,-143.7269"/>
<polygon fill="#000000" stroke="#000000" points="1398.8712,-143.7269 1402.3712,-153.7269 1405.8712,-143.727 1398.8712,-143.7269"/>
</g>
<!-- AppComponent  -->
<g id="node6" class="node">
<title>AppComponent </title>
<polygon fill="#80b1d3" stroke="#000000" points="1425.439,-258 1316.561,-258 1316.561,-222 1425.439,-222 1425.439,-258"/>
<text text-anchor="middle" x="1371" y="-235.8" font-family="Times,serif" font-size="14.00" fill="#000000">AppComponent </text>
</g>
<!-- AppModule&#45;&gt;AppComponent  -->
<g id="edge5" class="edge">
<title>AppModule&#45;&gt;AppComponent </title>
<path fill="none" stroke="#000000" stroke-dasharray="1,5" d="M1339.6289,-190.2228C1339.6289,-190.2228 1339.6289,-211.7269 1339.6289,-211.7269"/>
<polygon fill="#000000" stroke="#000000" points="1336.1289,-211.7269 1339.6289,-221.7269 1343.1289,-211.727 1336.1289,-211.7269"/>
</g>
<!-- AppModule&#45;&gt;AppComponent  -->
<g id="edge12" class="edge">
<title>AppModule&#45;&gt;AppComponent </title>
<path fill="none" stroke="#000000" stroke-dasharray="1,5" d="M1360.543,-190.2228C1360.543,-190.2228 1360.543,-211.7269 1360.543,-211.7269"/>
<polygon fill="#000000" stroke="#000000" points="1357.043,-211.7269 1360.543,-221.7269 1364.043,-211.727 1357.043,-211.7269"/>
</g>
<!-- AppModule&#45;&gt;AppComponent  -->
<g id="edge19" class="edge">
<title>AppModule&#45;&gt;AppComponent </title>
<path fill="none" stroke="#000000" stroke-dasharray="1,5" d="M1371,-190.2228C1371,-190.2228 1371,-211.7269 1371,-211.7269"/>
<polygon fill="#000000" stroke="#000000" points="1367.5001,-211.7269 1371,-221.7269 1374.5001,-211.727 1367.5001,-211.7269"/>
</g>
<!-- AppModule&#45;&gt;AppComponent  -->
<g id="edge23" class="edge">
<title>AppModule&#45;&gt;AppComponent </title>
<path fill="none" stroke="#000000" stroke-dasharray="1,5" d="M1381.4571,-190.2228C1381.4571,-190.2228 1381.4571,-211.7269 1381.4571,-211.7269"/>
<polygon fill="#000000" stroke="#000000" points="1377.9571,-211.7269 1381.4571,-221.7269 1384.9571,-211.727 1377.9571,-211.7269"/>
</g>
<!-- AppModule&#45;&gt;AppComponent  -->
<g id="edge31" class="edge">
<title>AppModule&#45;&gt;AppComponent </title>
<path fill="none" stroke="#000000" stroke-dasharray="1,5" d="M1391.9141,-190.2228C1391.9141,-190.2228 1391.9141,-211.7269 1391.9141,-211.7269"/>
<polygon fill="#000000" stroke="#000000" points="1388.4142,-211.7269 1391.9141,-221.7269 1395.4142,-211.727 1388.4142,-211.7269"/>
</g>
<!-- AppModule&#45;&gt;AppComponent  -->
<g id="edge34" class="edge">
<title>AppModule&#45;&gt;AppComponent </title>
<path fill="none" stroke="#000000" stroke-dasharray="1,5" d="M1402.3712,-190.2228C1402.3712,-190.2228 1402.3712,-211.7269 1402.3712,-211.7269"/>
<polygon fill="#000000" stroke="#000000" points="1398.8712,-211.7269 1402.3712,-221.7269 1405.8712,-211.727 1398.8712,-211.7269"/>
</g>
<!-- AppModule&#45;&gt;AppComponent  -->
<g id="edge38" class="edge">
<title>AppModule&#45;&gt;AppComponent </title>
<path fill="none" stroke="#000000" stroke-dasharray="1,5" d="M1350.0859,-190.2228C1350.0859,-190.2228 1350.0859,-211.7269 1350.0859,-211.7269"/>
<polygon fill="#000000" stroke="#000000" points="1346.586,-211.7269 1350.0859,-221.7269 1353.586,-211.727 1346.586,-211.7269"/>
</g>
<!-- AuthenticateComponent  -->
<g id="node10" class="node">
<title>AuthenticateComponent </title>
<polygon fill="#fb8072" stroke="#000000" points="1760.3602,-258 1603.6398,-258 1603.6398,-222 1760.3602,-222 1760.3602,-258"/>
<text text-anchor="middle" x="1682" y="-235.8" font-family="Times,serif" font-size="14.00" fill="#000000">AuthenticateComponent </text>
</g>
<!-- AppModule&#45;&gt;AuthenticateComponent  -->
<g id="edge11" class="edge">
<title>AppModule&#45;&gt;AuthenticateComponent </title>
<path fill="none" stroke="#000000" stroke-dasharray="5,2" d="M1412.8804,-186C1492.7617,-186 1659.0188,-186 1659.0188,-186 1659.0188,-186 1659.0188,-211.7181 1659.0188,-211.7181"/>
<polygon fill="#000000" stroke="#000000" points="1655.5188,-211.718 1659.0188,-221.7181 1662.5188,-211.7181 1655.5188,-211.718"/>
</g>
<!-- SharemoduleModule  -->
<g id="node18" class="node">
<title>SharemoduleModule </title>
<polygon fill="#fb8072" stroke="#000000" points="1585.418,-258 1448.582,-258 1448.582,-222 1585.418,-222 1585.418,-258"/>
<text text-anchor="middle" x="1517" y="-235.8" font-family="Times,serif" font-size="14.00" fill="#000000">SharemoduleModule </text>
</g>
<!-- AppModule&#45;&gt;SharemoduleModule  -->
<g id="edge30" class="edge">
<title>AppModule&#45;&gt;SharemoduleModule </title>
<path fill="none" stroke="#000000" stroke-dasharray="5,2" d="M1412.921,-188C1446.1814,-188 1487.1173,-188 1487.1173,-188 1487.1173,-188 1487.1173,-211.8129 1487.1173,-211.8129"/>
<polygon fill="#000000" stroke="#000000" points="1483.6174,-211.8129 1487.1173,-221.8129 1490.6174,-211.813 1483.6174,-211.8129"/>
</g>
<!-- AppRoutingModule -->
<g id="node4" class="node">
<title>AppRoutingModule</title>
<polygon fill="#8dd3c7" stroke="#000000" points="2325.2744,-122 2322.2744,-126 2301.2744,-126 2298.2744,-122 2196.7256,-122 2196.7256,-86 2325.2744,-86 2325.2744,-122"/>
<text text-anchor="middle" x="2261" y="-99.8" font-family="Times,serif" font-size="14.00" fill="#000000">AppRoutingModule</text>
</g>
<!-- AppRoutingModule&#45;&gt;AppModule -->
<g id="edge3" class="edge">
<title>AppRoutingModule&#45;&gt;AppModule</title>
<path fill="none" stroke="#000000" d="M2277.0968,-122.1686C2277.0968,-143.498 2277.0968,-176 2277.0968,-176 2277.0968,-176 1422.8857,-176 1422.8857,-176"/>
<polygon fill="#000000" stroke="#000000" points="1422.8857,-172.5001 1412.8857,-176 1422.8857,-179.5001 1422.8857,-172.5001"/>
</g>
<!-- AppRoutingModule&#45;&gt;AppModule -->
<g id="edge10" class="edge">
<title>AppRoutingModule&#45;&gt;AppModule</title>
<path fill="none" stroke="#000000" d="M2261,-122.0267C2261,-142.7672 2261,-174 2261,-174 2261,-174 1422.7328,-174 1422.7328,-174"/>
<polygon fill="#000000" stroke="#000000" points="1422.7329,-170.5001 1412.7328,-174 1422.7328,-177.5001 1422.7329,-170.5001"/>
</g>
<!-- AppRoutingModule&#45;&gt;AppModule -->
<g id="edge17" class="edge">
<title>AppRoutingModule&#45;&gt;AppModule</title>
<path fill="none" stroke="#000000" d="M2293.1936,-122.2921C2293.1936,-144.2057 2293.1936,-178 2293.1936,-178 2293.1936,-178 1422.7182,-178 1422.7182,-178"/>
<polygon fill="#000000" stroke="#000000" points="1422.7182,-174.5001 1412.7182,-178 1422.7182,-181.5001 1422.7182,-174.5001"/>
</g>
<!-- AppRoutingModule&#45;&gt;AppModule -->
<g id="edge22" class="edge">
<title>AppRoutingModule&#45;&gt;AppModule</title>
<path fill="none" stroke="#000000" d="M2228.8065,-122.0348C2228.8065,-141.5762 2228.8065,-170 2228.8065,-170 2228.8065,-170 1422.6637,-170 1422.6637,-170"/>
<polygon fill="#000000" stroke="#000000" points="1422.6637,-166.5001 1412.6637,-170 1422.6636,-173.5001 1422.6637,-166.5001"/>
</g>
<!-- AppRoutingModule&#45;&gt;AppModule -->
<g id="edge26" class="edge">
<title>AppRoutingModule&#45;&gt;AppModule</title>
<path fill="none" stroke="#000000" d="M2212.7097,-122.1686C2212.7097,-141.0898 2212.7097,-168 2212.7097,-168 2212.7097,-168 1422.7405,-168 1422.7405,-168"/>
<polygon fill="#000000" stroke="#000000" points="1422.7405,-164.5001 1412.7405,-168 1422.7405,-171.5001 1422.7405,-164.5001"/>
</g>
<!-- AppRoutingModule&#45;&gt;AppModule -->
<g id="edge33" class="edge">
<title>AppRoutingModule&#45;&gt;AppModule</title>
<path fill="none" stroke="#000000" d="M2244.9032,-122.2228C2244.9032,-142.3652 2244.9032,-172 2244.9032,-172 2244.9032,-172 1422.8558,-172 1422.8558,-172"/>
<polygon fill="#000000" stroke="#000000" points="1422.8558,-168.5001 1412.8558,-172 1422.8557,-175.5001 1422.8558,-168.5001"/>
</g>
<!-- AppRoutingModule&#45;&gt;AppModule -->
<g id="edge37" class="edge">
<title>AppRoutingModule&#45;&gt;AppModule</title>
<path fill="none" stroke="#000000" d="M2309.2903,-122.0109C2309.2903,-144.4852 2309.2903,-180 2309.2903,-180 2309.2903,-180 1422.833,-180 1422.833,-180"/>
<polygon fill="#000000" stroke="#000000" points="1422.8331,-176.5001 1412.833,-180 1422.833,-183.5001 1422.8331,-176.5001"/>
</g>
<!-- SharemoduleModule -->
<g id="node5" class="node">
<title>SharemoduleModule</title>
<polygon fill="#8dd3c7" stroke="#000000" points="2476.9187,-122 2473.9187,-126 2452.9187,-126 2449.9187,-122 2343.0813,-122 2343.0813,-86 2476.9187,-86 2476.9187,-122"/>
<text text-anchor="middle" x="2410" y="-99.8" font-family="Times,serif" font-size="14.00" fill="#000000">SharemoduleModule</text>
</g>
<!-- SharemoduleModule&#45;&gt;AppModule -->
<g id="edge4" class="edge">
<title>SharemoduleModule&#45;&gt;AppModule</title>
<path fill="none" stroke="#000000" d="M2410,-122.1532C2410,-145.7566 2410,-184 2410,-184 2410,-184 1422.6935,-184 1422.6935,-184"/>
<polygon fill="#000000" stroke="#000000" points="1422.6935,-180.5001 1412.6935,-184 1422.6934,-187.5001 1422.6935,-180.5001"/>
</g>
<!-- SharemoduleModule&#45;&gt;AppModule -->
<g id="edge18" class="edge">
<title>SharemoduleModule&#45;&gt;AppModule</title>
<path fill="none" stroke="#000000" d="M2376.6455,-122.0908C2376.6455,-145.1328 2376.6455,-182 2376.6455,-182 2376.6455,-182 1422.931,-182 1422.931,-182"/>
<polygon fill="#000000" stroke="#000000" points="1422.931,-178.5001 1412.931,-182 1422.931,-185.5001 1422.931,-178.5001"/>
</g>
<!-- HomeModule -->
<g id="node24" class="node">
<title>HomeModule</title>
<polygon fill="#8dd3c7" stroke="#000000" points="3355.7619,-190 3352.7619,-194 3331.7619,-194 3328.7619,-190 3262.2381,-190 3262.2381,-154 3355.7619,-154 3355.7619,-190"/>
<text text-anchor="middle" x="3309" y="-167.8" font-family="Times,serif" font-size="14.00" fill="#000000">HomeModule</text>
</g>
<!-- SharemoduleModule&#45;&gt;HomeModule -->
<g id="edge43" class="edge">
<title>SharemoduleModule&#45;&gt;HomeModule</title>
<path fill="none" stroke="#000000" d="M2476.8257,-94C2657.9498,-94 3144.7504,-94 3144.7504,-94 3144.7504,-94 3144.7504,-172 3144.7504,-172 3144.7504,-172 3251.9326,-172 3251.9326,-172"/>
<polygon fill="#000000" stroke="#000000" points="3251.9327,-175.5001 3261.9326,-172 3251.9326,-168.5001 3251.9327,-175.5001"/>
</g>
<!-- FooterComponent  -->
<g id="node28" class="node">
<title>FooterComponent </title>
<polygon fill="#fb8072" stroke="#000000" points="2812.8814,-190 2691.1186,-190 2691.1186,-154 2812.8814,-154 2812.8814,-190"/>
<text text-anchor="middle" x="2752" y="-167.8" font-family="Times,serif" font-size="14.00" fill="#000000">FooterComponent </text>
</g>
<!-- SharemoduleModule&#45;&gt;FooterComponent  -->
<g id="edge46" class="edge">
<title>SharemoduleModule&#45;&gt;FooterComponent </title>
<path fill="none" stroke="#000000" stroke-dasharray="5,2" d="M2476.7529,-115C2576.2812,-115 2752,-115 2752,-115 2752,-115 2752,-143.9648 2752,-143.9648"/>
<polygon fill="#000000" stroke="#000000" points="2748.5001,-143.9648 2752,-153.9648 2755.5001,-143.9649 2748.5001,-143.9648"/>
</g>
<!-- IbemsheaderComponent  -->
<g id="node29" class="node">
<title>IbemsheaderComponent </title>
<polygon fill="#fb8072" stroke="#000000" points="2673.3476,-190 2516.6524,-190 2516.6524,-154 2673.3476,-154 2673.3476,-190"/>
<text text-anchor="middle" x="2595" y="-167.8" font-family="Times,serif" font-size="14.00" fill="#000000">IbemsheaderComponent </text>
</g>
<!-- SharemoduleModule&#45;&gt;IbemsheaderComponent  -->
<g id="edge47" class="edge">
<title>SharemoduleModule&#45;&gt;IbemsheaderComponent </title>
<path fill="none" stroke="#000000" stroke-dasharray="5,2" d="M2443.3545,-122.1871C2443.3545,-137.1824 2443.3545,-156 2443.3545,-156 2443.3545,-156 2506.5121,-156 2506.5121,-156"/>
<polygon fill="#000000" stroke="#000000" points="2506.5121,-159.5001 2516.5121,-156 2506.5121,-152.5001 2506.5121,-159.5001"/>
</g>
<!-- HttpClientService -->
<g id="node7" class="node">
<title>HttpClientService</title>
<ellipse fill="#fdb462" stroke="#000000" cx="377" cy="-104" rx="80.5316" ry="18"/>
<text text-anchor="middle" x="377" y="-99.8" font-family="Times,serif" font-size="14.00" fill="#000000">HttpClientService</text>
</g>
<!-- HttpClientService&#45;&gt;AppModule -->
<g id="edge6" class="edge">
<title>HttpClientService&#45;&gt;AppModule</title>
<path fill="none" stroke="#000000" d="M350.0782,-121.3107C350.0782,-144.2902 350.0782,-182 350.0782,-182 350.0782,-182 1319.0753,-182 1319.0753,-182"/>
<polygon fill="#000000" stroke="#000000" points="1319.0754,-185.5001 1329.0753,-182 1319.0753,-178.5001 1319.0754,-185.5001"/>
</g>
<!-- HttpClientService&#45;&gt;AppModule -->
<g id="edge13" class="edge">
<title>HttpClientService&#45;&gt;AppModule</title>
<path fill="none" stroke="#000000" d="M403.9218,-121.1631C403.9218,-143.0234 403.9218,-178 403.9218,-178 403.9218,-178 1319.1355,-178 1319.1355,-178"/>
<polygon fill="#000000" stroke="#000000" points="1319.1355,-181.5001 1329.1355,-178 1319.1354,-174.5001 1319.1355,-181.5001"/>
</g>
<!-- AuthenticateComponent -->
<g id="node8" class="node">
<title>AuthenticateComponent</title>
<polygon fill="#ffffb3" stroke="#000000" points="1300.3599,-122 1147.6401,-122 1147.6401,-86 1300.3599,-86 1300.3599,-122"/>
<text text-anchor="middle" x="1224" y="-99.8" font-family="Times,serif" font-size="14.00" fill="#000000">AuthenticateComponent</text>
</g>
<!-- AuthenticateComponent&#45;&gt;AppModule -->
<g id="edge8" class="edge">
<title>AuthenticateComponent&#45;&gt;AppModule</title>
<path fill="none" stroke="#000000" d="M1224,-122.2819C1224,-137.9478 1224,-158 1224,-158 1224,-158 1319.2689,-158 1319.2689,-158"/>
<polygon fill="#000000" stroke="#000000" points="1319.2689,-161.5001 1329.2689,-158 1319.2689,-154.5001 1319.2689,-161.5001"/>
</g>
<!-- ForgotpasswordComponent -->
<g id="node9" class="node">
<title>ForgotpasswordComponent</title>
<polygon fill="#ffffb3" stroke="#000000" points="1129.5378,-122 958.4622,-122 958.4622,-86 1129.5378,-86 1129.5378,-122"/>
<text text-anchor="middle" x="1044" y="-99.8" font-family="Times,serif" font-size="14.00" fill="#000000">ForgotpasswordComponent</text>
</g>
<!-- ForgotpasswordComponent&#45;&gt;AppModule -->
<g id="edge9" class="edge">
<title>ForgotpasswordComponent&#45;&gt;AppModule</title>
<path fill="none" stroke="#000000" d="M1044,-122.0336C1044,-139.0597 1044,-162 1044,-162 1044,-162 1319.2531,-162 1319.2531,-162"/>
<polygon fill="#000000" stroke="#000000" points="1319.2531,-165.5001 1329.2531,-162 1319.253,-158.5001 1319.2531,-165.5001"/>
</g>
<!-- ShareCommonObjectsService -->
<g id="node11" class="node">
<title>ShareCommonObjectsService</title>
<ellipse fill="#fdb462" stroke="#000000" cx="151" cy="-104" rx="127.346" ry="18"/>
<text text-anchor="middle" x="151" y="-99.8" font-family="Times,serif" font-size="14.00" fill="#000000">ShareCommonObjectsService</text>
</g>
<!-- ShareCommonObjectsService&#45;&gt;AppModule -->
<g id="edge14" class="edge">
<title>ShareCommonObjectsService&#45;&gt;AppModule</title>
<path fill="none" stroke="#000000" d="M151,-122.1985C151,-146.3563 151,-186 151,-186 151,-186 1319.0048,-186 1319.0048,-186"/>
<polygon fill="#000000" stroke="#000000" points="1319.0049,-189.5001 1329.0048,-186 1319.0048,-182.5001 1319.0049,-189.5001"/>
</g>
<!-- ControlComponent -->
<g id="node12" class="node">
<title>ControlComponent</title>
<polygon fill="#ffffb3" stroke="#000000" points="940.1108,-122 815.8892,-122 815.8892,-86 940.1108,-86 940.1108,-122"/>
<text text-anchor="middle" x="878" y="-99.8" font-family="Times,serif" font-size="14.00" fill="#000000">ControlComponent</text>
</g>
<!-- ControlComponent&#45;&gt;AppModule -->
<g id="edge16" class="edge">
<title>ControlComponent&#45;&gt;AppModule</title>
<path fill="none" stroke="#000000" d="M878,-122.2667C878,-140.5552 878,-166 878,-166 878,-166 1318.9671,-166 1318.9671,-166"/>
<polygon fill="#000000" stroke="#000000" points="1318.9671,-169.5001 1328.9671,-166 1318.9671,-162.5001 1318.9671,-169.5001"/>
</g>
<!-- EnergyComponent -->
<g id="node13" class="node">
<title>EnergyComponent</title>
<polygon fill="#ffffb3" stroke="#000000" points="797.7604,-122 676.2396,-122 676.2396,-86 797.7604,-86 797.7604,-122"/>
<text text-anchor="middle" x="737" y="-99.8" font-family="Times,serif" font-size="14.00" fill="#000000">EnergyComponent</text>
</g>
<!-- EnergyComponent&#45;&gt;AppModule -->
<g id="edge21" class="edge">
<title>EnergyComponent&#45;&gt;AppModule</title>
<path fill="none" stroke="#000000" d="M737,-122.0348C737,-141.5762 737,-170 737,-170 737,-170 1318.9105,-170 1318.9105,-170"/>
<polygon fill="#000000" stroke="#000000" points="1318.9105,-173.5001 1328.9105,-170 1318.9105,-166.5001 1318.9105,-173.5001"/>
</g>
<!-- AlarmAppModule -->
<g id="node14" class="node">
<title>AlarmAppModule</title>
<polygon fill="#8dd3c7" stroke="#000000" points="2036.9201,-122 2033.9201,-126 2012.9201,-126 2009.9201,-122 1917.0799,-122 1917.0799,-86 2036.9201,-86 2036.9201,-122"/>
<text text-anchor="middle" x="1977" y="-99.8" font-family="Times,serif" font-size="14.00" fill="#000000">AlarmAppModule</text>
</g>
<!-- AlarmAppModule&#45;&gt;AppModule -->
<g id="edge25" class="edge">
<title>AlarmAppModule&#45;&gt;AppModule</title>
<path fill="none" stroke="#000000" d="M1977,-122.002C1977,-139.6754 1977,-164 1977,-164 1977,-164 1423.1316,-164 1423.1316,-164"/>
<polygon fill="#000000" stroke="#000000" points="1423.1316,-160.5001 1413.1316,-164 1423.1316,-167.5001 1423.1316,-160.5001"/>
</g>
<!-- AuthenticationAppModule -->
<g id="node15" class="node">
<title>AuthenticationAppModule</title>
<polygon fill="#8dd3c7" stroke="#000000" points="1899.3599,-122 1896.3599,-126 1875.3599,-126 1872.3599,-122 1732.6401,-122 1732.6401,-86 1899.3599,-86 1899.3599,-122"/>
<text text-anchor="middle" x="1816" y="-99.8" font-family="Times,serif" font-size="14.00" fill="#000000">AuthenticationAppModule</text>
</g>
<!-- AuthenticationAppModule&#45;&gt;AppModule -->
<g id="edge27" class="edge">
<title>AuthenticationAppModule&#45;&gt;AppModule</title>
<path fill="none" stroke="#000000" d="M1746.375,-122.0336C1746.375,-139.0597 1746.375,-162 1746.375,-162 1746.375,-162 1422.9676,-162 1422.9676,-162"/>
<polygon fill="#000000" stroke="#000000" points="1422.9677,-158.5001 1412.9676,-162 1422.9676,-165.5001 1422.9677,-158.5001"/>
</g>
<!-- ControlAppModule -->
<g id="node16" class="node">
<title>ControlAppModule</title>
<polygon fill="#8dd3c7" stroke="#000000" points="1714.4356,-122 1711.4356,-126 1690.4356,-126 1687.4356,-122 1587.5644,-122 1587.5644,-86 1714.4356,-86 1714.4356,-122"/>
<text text-anchor="middle" x="1651" y="-99.8" font-family="Times,serif" font-size="14.00" fill="#000000">ControlAppModule</text>
</g>
<!-- ControlAppModule&#45;&gt;AppModule -->
<g id="edge28" class="edge">
<title>ControlAppModule&#45;&gt;AppModule</title>
<path fill="none" stroke="#000000" d="M1595.8014,-122.027C1595.8014,-138.3976 1595.8014,-160 1595.8014,-160 1595.8014,-160 1422.7566,-160 1422.7566,-160"/>
<polygon fill="#000000" stroke="#000000" points="1422.7566,-156.5001 1412.7566,-160 1422.7565,-163.5001 1422.7566,-156.5001"/>
</g>
<!-- EnergyAppModule -->
<g id="node17" class="node">
<title>EnergyAppModule</title>
<polygon fill="#8dd3c7" stroke="#000000" points="2179.0842,-122 2176.0842,-126 2155.0842,-126 2152.0842,-122 2054.9158,-122 2054.9158,-86 2179.0842,-86 2179.0842,-122"/>
<text text-anchor="middle" x="2117" y="-99.8" font-family="Times,serif" font-size="14.00" fill="#000000">EnergyAppModule</text>
</g>
<!-- EnergyAppModule&#45;&gt;AppModule -->
<g id="edge29" class="edge">
<title>EnergyAppModule&#45;&gt;AppModule</title>
<path fill="none" stroke="#000000" d="M2117,-122.2667C2117,-140.5552 2117,-166 2117,-166 2117,-166 1422.7067,-166 1422.7067,-166"/>
<polygon fill="#000000" stroke="#000000" points="1422.7067,-162.5001 1412.7067,-166 1422.7067,-169.5001 1422.7067,-162.5001"/>
</g>
<!-- WaterDashboardComponent -->
<g id="node19" class="node">
<title>WaterDashboardComponent</title>
<polygon fill="#ffffb3" stroke="#000000" points="658.1685,-122 481.8315,-122 481.8315,-86 658.1685,-86 658.1685,-122"/>
<text text-anchor="middle" x="570" y="-99.8" font-family="Times,serif" font-size="14.00" fill="#000000">WaterDashboardComponent</text>
</g>
<!-- WaterDashboardComponent&#45;&gt;AppModule -->
<g id="edge36" class="edge">
<title>WaterDashboardComponent&#45;&gt;AppModule</title>
<path fill="none" stroke="#000000" d="M570,-122.0267C570,-142.7672 570,-174 570,-174 570,-174 1319.3424,-174 1319.3424,-174"/>
<polygon fill="#000000" stroke="#000000" points="1319.3425,-177.5001 1329.3424,-174 1319.3424,-170.5001 1319.3425,-177.5001"/>
</g>
<!-- BarGraphComponent -->
<g id="node20" class="node">
<title>BarGraphComponent</title>
<polygon fill="#ffffb3" stroke="#000000" points="3779.0268,-122 3642.9732,-122 3642.9732,-86 3779.0268,-86 3779.0268,-122"/>
<text text-anchor="middle" x="3711" y="-99.8" font-family="Times,serif" font-size="14.00" fill="#000000">BarGraphComponent</text>
</g>
<!-- ChartmoduleModule -->
<g id="node21" class="node">
<title>ChartmoduleModule</title>
<polygon fill="#8dd3c7" stroke="#000000" points="3777.1485,-190 3774.1485,-194 3753.1485,-194 3750.1485,-190 3644.8515,-190 3644.8515,-154 3777.1485,-154 3777.1485,-190"/>
<text text-anchor="middle" x="3711" y="-167.8" font-family="Times,serif" font-size="14.00" fill="#000000">ChartmoduleModule</text>
</g>
<!-- BarGraphComponent&#45;&gt;ChartmoduleModule -->
<g id="edge39" class="edge">
<title>BarGraphComponent&#45;&gt;ChartmoduleModule</title>
<path fill="none" stroke="#000000" d="M3711,-122.2228C3711,-122.2228 3711,-143.7269 3711,-143.7269"/>
<polygon fill="#000000" stroke="#000000" points="3707.5001,-143.7269 3711,-153.7269 3714.5001,-143.727 3707.5001,-143.7269"/>
</g>
<!-- DashboardComponent -->
<g id="node22" class="node">
<title>DashboardComponent</title>
<polygon fill="#ffffb3" stroke="#000000" points="3602.9734,-122 3461.0266,-122 3461.0266,-86 3602.9734,-86 3602.9734,-122"/>
<text text-anchor="middle" x="3532" y="-99.8" font-family="Times,serif" font-size="14.00" fill="#000000">DashboardComponent</text>
</g>
<!-- DashboardComponent&#45;&gt;HomeModule -->
<g id="edge40" class="edge">
<title>DashboardComponent&#45;&gt;HomeModule</title>
<path fill="none" stroke="#000000" d="M3532,-122.2228C3532,-142.3652 3532,-172 3532,-172 3532,-172 3366.0201,-172 3366.0201,-172"/>
<polygon fill="#000000" stroke="#000000" points="3366.0201,-168.5001 3356.0201,-172 3366.02,-175.5001 3366.0201,-168.5001"/>
</g>
<!-- HomeComponent -->
<g id="node23" class="node">
<title>HomeComponent</title>
<polygon fill="#ffffb3" stroke="#000000" points="3442.5451,-122 3327.4549,-122 3327.4549,-86 3442.5451,-86 3442.5451,-122"/>
<text text-anchor="middle" x="3385" y="-99.8" font-family="Times,serif" font-size="14.00" fill="#000000">HomeComponent</text>
</g>
<!-- HomeComponent&#45;&gt;HomeModule -->
<g id="edge41" class="edge">
<title>HomeComponent&#45;&gt;HomeModule</title>
<path fill="none" stroke="#000000" d="M3341.5544,-122.2228C3341.5544,-122.2228 3341.5544,-143.7269 3341.5544,-143.7269"/>
<polygon fill="#000000" stroke="#000000" points="3338.0544,-143.7269 3341.5544,-153.7269 3345.0544,-143.727 3338.0544,-143.7269"/>
</g>
<!-- HomeRoutingModule -->
<g id="node25" class="node">
<title>HomeRoutingModule</title>
<polygon fill="#8dd3c7" stroke="#000000" points="3303.3795,-122 3300.3795,-126 3279.3795,-126 3276.3795,-122 3164.6205,-122 3164.6205,-86 3303.3795,-86 3303.3795,-122"/>
<text text-anchor="middle" x="3234" y="-99.8" font-family="Times,serif" font-size="14.00" fill="#000000">HomeRoutingModule</text>
</g>
<!-- HomeRoutingModule&#45;&gt;HomeModule -->
<g id="edge42" class="edge">
<title>HomeRoutingModule&#45;&gt;HomeModule</title>
<path fill="none" stroke="#000000" d="M3282.7795,-122.2228C3282.7795,-122.2228 3282.7795,-143.7269 3282.7795,-143.7269"/>
<polygon fill="#000000" stroke="#000000" points="3279.2795,-143.7269 3282.7795,-153.7269 3286.2795,-143.727 3279.2795,-143.7269"/>
</g>
<!-- FooterComponent -->
<g id="node26" class="node">
<title>FooterComponent</title>
<polygon fill="#ffffb3" stroke="#000000" points="3124.8809,-190 3007.1191,-190 3007.1191,-154 3124.8809,-154 3124.8809,-190"/>
<text text-anchor="middle" x="3066" y="-167.8" font-family="Times,serif" font-size="14.00" fill="#000000">FooterComponent</text>
</g>
<!-- FooterComponent&#45;&gt;SharemoduleModule -->
<g id="edge44" class="edge">
<title>FooterComponent&#45;&gt;SharemoduleModule</title>
<path fill="none" stroke="#000000" d="M3066,-153.7157C3066,-132.6789 3066,-101 3066,-101 3066,-101 2486.8155,-101 2486.8155,-101"/>
<polygon fill="#000000" stroke="#000000" points="2486.8155,-97.5001 2476.8155,-101 2486.8154,-104.5001 2486.8155,-97.5001"/>
</g>
<!-- IbemsheaderComponent -->
<g id="node27" class="node">
<title>IbemsheaderComponent</title>
<polygon fill="#ffffb3" stroke="#000000" points="2989.3473,-190 2836.6527,-190 2836.6527,-154 2989.3473,-154 2989.3473,-190"/>
<text text-anchor="middle" x="2913" y="-167.8" font-family="Times,serif" font-size="14.00" fill="#000000">IbemsheaderComponent</text>
</g>
<!-- IbemsheaderComponent&#45;&gt;SharemoduleModule -->
<g id="edge45" class="edge">
<title>IbemsheaderComponent&#45;&gt;SharemoduleModule</title>
<path fill="none" stroke="#000000" d="M2913,-153.8314C2913,-134.9102 2913,-108 2913,-108 2913,-108 2486.7945,-108 2486.7945,-108"/>
<polygon fill="#000000" stroke="#000000" points="2486.7946,-104.5001 2476.7945,-108 2486.7945,-111.5001 2486.7946,-104.5001"/>
</g>
</g>
</svg>
